<?xml version="1.0" standalone="no"?><!DOCTYPE svg PUBLIC "-//W3C//DTD SVG 1.1//EN" "http://www.w3.org/Graphics/SVG/1.1/DTD/svg11.dtd"><svg t="1507881024468" class="icon" style="" viewBox="0 0 1024 1024" version="1.1" xmlns="http://www.w3.org/2000/svg" p-id="5617" xmlns:xlink="http://www.w3.org/1999/xlink" width="32" height="32"><defs><style type="text/css"></style></defs><path d="M737.792 481.28H289.792c-17.92 0-32.256 14.336-32.256 32.256s14.336 32.256 32.256 32.256h448c17.92 0 32.256-14.336 32.256-31.744s-14.336-32.768-32.256-32.768z" fill="#b0b0b0" p-id="5618"></path><path d="M830.464 197.632c-84.48-83.968-197.12-130.56-316.928-130.56-119.296 0-231.936 46.592-316.416 130.56C112.64 282.112 66.048 393.728 66.048 513.024c0 119.296 46.592 231.424 131.072 315.392s197.12 130.56 316.928 130.56 231.936-46.592 316.928-130.56c84.48-83.968 131.072-196.096 131.072-315.392-0.512-119.296-47.104-230.912-131.584-315.392zM785.408 783.36c-72.704 72.192-168.96 112.128-271.36 112.128s-199.168-39.936-271.36-112.128c-72.704-72.192-112.64-167.936-112.64-269.824s39.936-198.144 112.64-270.336c72.704-72.192 168.96-112.128 271.36-112.128s199.168 39.936 271.36 112.128c72.704 72.192 112.128 167.936 112.128 269.824 0 101.888-39.936 198.144-112.128 270.336z" fill="#b0b0b0" p-id="5619"></path></svg>