<?xml version="1.0" standalone="no"?><!DOCTYPE svg PUBLIC "-//W3C//DTD SVG 1.1//EN" "http://www.w3.org/Graphics/SVG/1.1/DTD/svg11.dtd"><svg t="1508142657531" class="icon" style="" viewBox="0 0 1024 1024" version="1.1" xmlns="http://www.w3.org/2000/svg" p-id="3251" xmlns:xlink="http://www.w3.org/1999/xlink" width="32" height="32"><defs><style type="text/css"></style></defs><path d="M954.016 875.008q0 19.008-6.496 35.488t-18.496 28.992-28 19.488-35.008 7.008l-726.016 0q-19.008 0-36-7.008t-30.016-19.488-20.512-28.992-7.488-35.488l0-499.008q0-38.016 26.496-64.512t64.512-26.496l726.016 0q38.016 0 64.512 26.496t26.496 64.512l0 136-227.008 0q-38.016 0-64.512 26.016t-26.496 64q0.992 26.016 11.008 46.016 8 16.992 26.496 31.008t53.504 14.016l227.008 0 0 182.016zM818.016 239.008l-454.016 0q54.016-28 102.016-54.016 42.016-22.016 83.008-44t64-34.016q35.008-19.008 62.496-17.504t46.496 9.504q22.016 11.008 38.016 28.992zM682.016 602.016q0-19.008 12.992-32t32-12.992 32 12.992 12.992 32-12.992 32.512-32 13.504-32-13.504-12.992-32.512z" p-id="3252" fill="#ffa671"></path></svg>