<?xml version="1.0" standalone="no"?><!DOCTYPE svg PUBLIC "-//W3C//DTD SVG 1.1//EN" "http://www.w3.org/Graphics/SVG/1.1/DTD/svg11.dtd"><svg t="1508492471555" class="icon" style="" viewBox="0 0 1024 1024" version="1.1" xmlns="http://www.w3.org/2000/svg" p-id="5805" xmlns:xlink="http://www.w3.org/1999/xlink" width="32" height="32"><defs><style type="text/css"></style></defs><path d="M342 64.296c7.856-0.456 16-0.456 23.24-3.832 76.16-4.2 152.496-1.144 228.752-2.104 24.288 1.096 49.128-1.552 72.96 4.112 4.976 0.728 10 1.368 15.064 2.008 14.52 13.744 17.488 34.152 14.248 53.104-13.288 28.672-30.592 57.6-58.488 74.056-36.664 21.552-78.808 32.552-121.088 34.84-43.2-0.232-86.52-10.912-124.648-31.456-29.816-15.112-49.04-44.608-62.688-74.104-6.664-19.408-2.008-42.008 12.648-56.616m-18.264 248.104c59.856-42.28 132.408-71.456 206.784-65.704 83.688 6.208 159.352 51.048 220.304 106.4 53.832 49.4 98.944 108.76 130.264 174.872 17.08 38.672 32 80 30.496 122.96 0.456 57.712-1.328 116.752-19.584 172-12.056 37.488-35.52 71.504-67.44 94.784-31.2 23.88-68.8 36.752-105.928 48.08H309.72c-36.208-8.352-71.776-21.688-102.688-42.552-36.712-24.384-63.736-62.144-76.48-104.192C111.608 757.944 111.472 693.016 112.8 629.6c4.288-44.608 21.92-86.84 42.4-126.248 41-75.064 98.76-141.264 168.528-190.944zM456 461.072c-24.88 30.496-55.384 56.072-81.184 85.888 20.456 0.64 40.912-0.272 61.32 0.688 27.12-28.944 57.44-55.248 81.6-86.656q-30.888-0.344-61.776 0.088z m74.288 0.184c7.304 11.32 17.856 19.904 27.2 29.496 18.784 18.44 36.408 38.048 55.312 56.384 19.544 0.088 39.08-0.088 58.672 0.32-1.232-4.8-2.736-9.6-6.8-12.736-24.8-24.064-48.4-49.264-72.8-73.736-20.544-0.088-41.096-0.456-61.6 0.272zM381.856 566.36c-0.272 10.224-0.232 20.456 0.048 30.728 23.648 0.368 47.44-1.416 71.048 1.048-17.6 26.256-32.28 54.288-48.8 81.184-6.312 12.464-16.152 23.288-19.352 37.072 18.176-0.088 36.392-0.048 54.56-0.184 22.736-39.72 45.84-79.264 69.6-118.304 30.64-2.328 61.504-0.184 92.232-1.048 0.456 29.6 0.048 59.128 0.184 88.712-32.096 0.136-64.24 0.184-96.344-0.048-0.456 10.224-0.592 20.504-0.64 30.776 35.112 0.136 70.224-0.184 105.376 0.184 11.2-10.088 22.648-19.904 34.4-29.448 3.656-3.608 9.864-6.664 8.584-12.872 0.048-36 0.504-71.96-0.368-107.888-90.176 0.504-180.352 0.32-270.48 0.088" fill="#b19848" p-id="5806"></path></svg>