<?xml version="1.0" standalone="no"?><!DOCTYPE svg PUBLIC "-//W3C//DTD SVG 1.1//EN" "http://www.w3.org/Graphics/SVG/1.1/DTD/svg11.dtd"><svg t="1508553426511" class="icon" style="" viewBox="0 0 1024 1024" version="1.1" xmlns="http://www.w3.org/2000/svg" p-id="4609" xmlns:xlink="http://www.w3.org/1999/xlink" width="32" height="32"><defs><style type="text/css"></style></defs><path d="M49.691237 809.637818c-21.583574-10.178827-29.182646-24.77015-29.252231-56.156998l-0.049119-21.162995L513.089309 732.317825l492.700445 0-0.021489 21.162995c-0.031722 31.500435-8.175193 46.733371-30.366611 56.792471-9.730619 4.409426-11.468193 4.424776-462.311321 4.455475l-452.54591 0.024559L49.691237 809.637818 49.691237 809.637818zM20.410354 456.124412l0.021489-204.569142 5.119601-10.852162c6.095835-12.932544 12.098549-18.827811 25.225521-24.778336 9.730619-4.412496 11.43954-4.427846 462.313368-4.427846 450.872804 0 452.580702 0.016373 462.311321 4.427846 13.127995 5.950526 19.127639 11.845793 25.227568 24.778336l5.117554 10.852162 0.021489 204.569142 0.021489 204.568119L513.089309 660.69253 20.391934 660.69253l0.021489-204.568119L20.410354 456.124412zM276.695345 532.010753c11.653411-5.803169 17.732873-18.294668 18.924002-38.882566l0.979304-16.927531-24.980951 0-24.981974 0-2.403746 9.546424c-3.107781 12.340049-8.565073 14.328333-39.350217 14.328333-40.356127 0-43.425022-2.874467-43.379996-40.62014 0.014326-14.07046 0.574075-27.609825 1.239224-30.087249 2.468215-9.188266 11.395538-11.770068 40.705074-11.770068 33.968649 0 37.513382 1.216711 40.946574 14.051017l2.62785 9.824763 24.511253 0 24.509207 0 0-12.062733c0-26.27748-9.714246-43.61331-27.1565-48.456618-5.343705-1.482771-31.135114-2.408863-67.375503-2.415003-58.274218-0.01228-58.802244 0.029676-69.595055 5.40715-18.700921 9.320273-19.818371 13.170974-20.132526 69.464071-0.146333 26.26213 0.644683 51.531654 1.752924 56.152904 2.4017 9.995655 13.012362 21.642926 22.600741 24.812105 4.281513 1.415232 30.68793 2.131547 69.830415 1.895163C261.559623 535.932062 269.818727 535.435759 276.695345 532.010753L276.695345 532.010753zM365.49581 506.587734l0-30.387078 42.323944 0 42.324968 0 0 30.387078 0 30.386054 24.01495 0 24.013927 0-0.680499-67.929112c-0.76134-75.79936-0.506537-74.479295-16.306384-84.300988-8.077979-5.02341-9.516748-5.14416-68.330248-5.799076-64.866357-0.721431-73.027224 0.233314-84.455507 9.848299-12.322653 10.371208-12.82612 13.666254-12.82612 84.080977l0 64.100924 24.960485 0 24.960485 0L365.49581 506.587734zM365.49581 434.116165c0-2.850931 1.865487-7.492648 4.143367-10.30981 3.929496-4.860704 5.676279-5.160533 33.80185-5.840008 28.091802-0.674359 30.05041-0.445138 37.080523 4.341888 4.081968 2.780323 7.429203 6.197142 7.437389 7.591909 0.008186 1.394766 0.605797 4.079922 1.331321 5.968945 1.173732 3.058662-3.323699 3.434216-41.23924 3.434216l-42.555212 0L365.49581 434.116165zM569.521576 510.928598l0-26.046213 13.56597-0.053212 13.56597-0.053212 24.960485 26.223245 24.960485 26.225291 28.761044-0.667196 28.763091-0.669242-24.422226-25.27771-24.419156-25.278733 13.022595-2.263553c11.550057-2.004657 14.040784-3.403516 22.021549-12.386098 4.948709-5.570879 9.589402-13.077853 10.30981-16.686031 2.207271-11.034311 1.460258-38.654368-1.295506-47.847751-3.457752-11.541871-13.871939-22.226211-24.550139-25.193799-5.538133-1.534959-35.041074-2.405793-81.909521-2.415003l-73.254398-0.010233 0 79.222319 0 79.222319 24.961508 0 24.960485 0L569.523623 510.928598zM569.521576 431.561993l0-14.252609 37.093826 0.686638c35.973306 0.665149 37.222763 0.839111 41.241286 5.810333 5.475711 6.770194 5.275143 8.18645-2.200108 15.661701l-6.344498 6.346545-34.894741 0-34.895765 0L569.521576 431.561993zM878.931508 534.546505c13.037944-3.282766 21.874193-12.723789 24.955368-26.660196 1.533936-6.946202 2.172479-28.097942 1.709945-56.811914-0.728594-45.338604-0.785899-45.825698-6.511297-54.465472-11.059893-16.700357-12.274558-16.914228-100.034321-17.618263l-77.595262-0.6191 0 79.299067 0 79.30316 73.921593 0C842.659397 536.973788 872.769159 536.098861 878.931508 534.546505L878.931508 534.546505zM771.37691 458.837196l0-41.23924 33.499975 0c35.929304 0 42.819225 1.331321 47.14167 9.118682 3.123131 5.623068 4.025687 50.953486 1.216711 61.021795-2.805906 10.058077-11.908214 12.338003-49.232285 12.338003l-32.627095 0L771.375887 458.837196z" p-id="4610" fill="#1296db"></path></svg>