<?xml version="1.0" standalone="no"?><!DOCTYPE svg PUBLIC "-//W3C//DTD SVG 1.1//EN" "http://www.w3.org/Graphics/SVG/1.1/DTD/svg11.dtd"><svg t="1508492563027" class="icon" style="" viewBox="0 0 1024 1024" version="1.1" xmlns="http://www.w3.org/2000/svg" p-id="7677" xmlns:xlink="http://www.w3.org/1999/xlink" width="32" height="32"><defs><style type="text/css"></style></defs><path d="M19.134 411.668c3.161-6.793 8.034-12.336 14.075-16.221-1.241 0.021 5.124-3.503 12.243-4.956-2.576 0.263 2.133-0.77 7.082-0.781l109.003 0.001v527.964h-109.191c-9.763 0-18.205-3.379-25.329-10.137-7.141-6.752-10.695-15.018-10.695-24.758v-132.843c10.502 0 20.26-2.062 29.267-6.193 14.282-6.567 25.957-16.713 34.196-29.31-3.799 6.218 1.444-1.838 5.207-11.217 3.751-9.373 5.628-18.944 5.628-28.713 0-20.994-7.141-38.832-21.386-53.471-14.267-14.64-31.905-22.318-52.912-23.079v-172.218c0-5.237 0.932-9.938 2.814-14.068zM1024.958 534.375c-0.96 6.211-3.438 11.717-7.041 16.295-0.661 1.344-4.78 4.914-10.401 7.903-5.633 3.011-12.217 5.26-19.708 6.752l-58.54 18.012v-61.906c21.002-4.503 29.262-14.25 24.764-29.273l-56.285-181.234-100.186 31.521h-320.83l392.867-121.577-24.764-79.924c-1.515-6.001-5.254-10.502-11.261-13.509-6.012-2.989-12.018-3.751-18.018-2.254l-565.095 175.614c-6.012 1.515-10.521 5.26-13.503 11.261-3.011 6.018-3.764 12.018-2.254 18.012l4.498 12.379h-61.906l-12.379-40.528c-3.006-9.007-2.254-17.82 2.254-26.453 4.503-8.615 11.628-14.441 21.386-17.446l655.162-203.749c3.088-0.817 6.634-1.285 10.288-1.285 2.734 0 5.406 0.262 7.993 0.764 5.725 1.082 11.166 3.895 16.060 8.399 4.876 4.503 8.057 9.763 9.571 15.764l136.215 442.405c1.479 4.498 1.853 9.198 1.113 14.063zM870.73 400.42c6.757 7.141 10.125 15.583 10.125 25.329v34.895c-1.503-0.734-3.366-1.124-5.621-1.124-10.527 0-19.532 3.571-27.024 10.689-7.515 7.141-11.261 15.583-11.261 25.329 0 9.763 3.745 18.205 11.261 25.329 7.491 7.153 16.498 10.695 27.024 10.695h5.621v32.645h-5.621c-10.527 0-19.532 3.571-27.024 10.695-7.515 7.153-11.261 15.583-11.261 25.334 0 6.757 1.678 12.764 5.056 18.012 3.379 5.254 8.062 9.571 14.075 12.95 5.475 3.184 12.050 5.062 19.063 5.062 0.027 0 0.051 0 0.078 0h5.63v32.645h-5.633c-0.016 0-0.035 0-0.054 0-7.021 0-13.602 1.883-19.266 5.172-5.827 3.275-10.512 7.602-13.89 12.839-3.379 5.266-5.056 11.271-5.056 18.018 0 9.763 3.745 18.205 11.261 25.329 7.491 7.153 16.498 10.695 27.024 10.695h5.621v32.645h-5.621c-10.527 0-19.532 3.559-27.024 10.689-7.515 7.148-11.261 15.588-11.261 25.329 0 9.769 3.745 18.205 11.261 25.334 7.491 7.148 16.498 10.695 27.024 10.695h5.621v37.149c0 5.994-1.503 11.82-4.492 17.441-3.674 6.892-9.686 12.13-16.954 14.722-1.629 1.223-7.443 2.732-13.443 2.732h-638.274v-527.975h638.279c9.741 0 18.012 3.571 24.758 10.695zM757.548 745.989l29.482-69.73h-37.417l-24.945 72.567-24.379-72.562h-37.988l29.482 69.73h-29.482l0.571 24.379h36.846l4.532 8.505v7.37h-41.949v23.814h41.949v32.884h36.286v-32.891h40.813v-23.808h-40.813v-7.375l4.532-8.499h36.281v-24.385h-23.803z" p-id="7678" fill="#f95b62"></path></svg>