<?xml version="1.0" standalone="no"?><!DOCTYPE svg PUBLIC "-//W3C//DTD SVG 1.1//EN" "http://www.w3.org/Graphics/SVG/1.1/DTD/svg11.dtd"><svg t="1508554463118" class="icon" style="" viewBox="0 0 1024 1024" version="1.1" xmlns="http://www.w3.org/2000/svg" p-id="6638" xmlns:xlink="http://www.w3.org/1999/xlink" width="32" height="32"><defs><style type="text/css"></style></defs><path d="M635.345455 479.418182L488.727273 626.036364l-100.072728-100.072728-37.236363 39.563637 97.745454 100.072727 39.563637 39.563636 39.563636-39.563636 144.290909-146.618182z" fill="#f95b62" p-id="6639"></path><path d="M512 0C228.072727 0 0 228.072727 0 512s228.072727 512 512 512 512-228.072727 512-512S795.927273 0 512 0z m97.745455 256H674.909091v128h-65.163636V256z m-258.327273 0h65.163636v128h-65.163636V256z m451.490909 449.163636c0 34.909091-27.927273 65.163636-65.163636 65.163637H286.254545c-34.909091 0-65.163636-27.927273-65.163636-65.163637V384c0-34.909091 27.927273-65.163636 65.163636-65.163636h32.581819v95.418181h130.327272v-95.418181h130.327273v95.418181h130.327273v-95.418181h32.581818c34.909091 0 65.163636 27.927273 65.163636 65.163636v321.163636z" fill="#e8b9a6" p-id="6640"></path></svg>