<?xml version="1.0" standalone="no"?><!DOCTYPE svg PUBLIC "-//W3C//DTD SVG 1.1//EN" "http://www.w3.org/Graphics/SVG/1.1/DTD/svg11.dtd"><svg t="1509523033316" class="icon" style="" viewBox="0 0 1024 1024" version="1.1" xmlns="http://www.w3.org/2000/svg" p-id="2929" xmlns:xlink="http://www.w3.org/1999/xlink" width="32" height="32"><defs><style type="text/css"></style></defs><path d="M512 0C229.230592 0 0 229.229568 0 512s229.230592 512 512 512 512-229.230592 512-512S794.770432 0 512 0zM540.960768 787.321856c-9.521152 8.727552-20.629504 13.488128-34.117632 13.488128s-24.59648-4.760576-34.117632-13.488128c-9.521152-9.521152-13.488128-20.629504-13.488128-34.117632s3.966976-24.59648 13.488128-33.324032c9.521152-9.521152 20.629504-13.488128 34.117632-13.488128s25.39008 3.966976 34.911232 13.488128c8.727552 8.727552 13.488128 19.835904 13.488128 33.324032C555.242496 767.485952 550.48192 778.594304 540.960768 787.321856zM655.220736 469.948416c-7.933952 9.521152-29.351936 30.150656-64.263168 61.094912-17.455104 15.075328-29.345792 29.357056-37.280768 43.638784-10.314752 17.455104-15.0528 36.497408-15.0528 57.920512L538.624 651.264l-63.488 0 0-18.6624c0-26.182656 4.745216-49.195008 14.266368-69.030912 11.107328-23.80288 37.275648-53.955584 80.121856-92.040192 12.694528-12.695552 22.21568-22.2208 26.976256-28.567552 15.868928-19.835904 23.80288-40.4736 23.80288-62.690304 0-31.737856-9.521152-56.351744-26.976256-73.806848-18.248704-19.042304-44.432384-27.804672-77.756416-27.804672-39.671808 0-69.028864 12.62592-88.071168 38.808576C410.043392 339.685376 401.31584 369.664 401.31584 408.576l-62.681088 0c0-55.296 15.075328-99.833856 46.813184-133.157888 31.737856-34.911232 76.169216-52.228096 133.297152-52.228096 50.78016 0 91.244544 13.488128 122.1888 42.051584 29.357056 26.976256 44.435456 64.268288 44.435456 111.874048C685.36832 412.82048 675.05664 443.764736 655.220736 469.948416z" p-id="2930" fill="#4eb3f2"></path></svg>