<?xml version="1.0" standalone="no"?><!DOCTYPE svg PUBLIC "-//W3C//DTD SVG 1.1//EN" "http://www.w3.org/Graphics/SVG/1.1/DTD/svg11.dtd"><svg t="1508555490953" class="icon" style="" viewBox="0 0 1024 1024" version="1.1" xmlns="http://www.w3.org/2000/svg" p-id="19130" xmlns:xlink="http://www.w3.org/1999/xlink" width="32" height="32"><defs><style type="text/css"></style></defs><path d="M510.396479 66.644863c-246.544139 0-446.408119 199.86398-446.408119 446.408119s199.86398 446.408119 446.408119 446.408119S956.805622 759.598144 956.805622 513.052982 756.941642 66.644863 510.396479 66.644863zM510.394433 780.898263c0 0-196.419532-223.865627-196.419532-334.807369 0-110.935602 87.933725-200.883193 196.419532-200.883193 108.466364 0 196.424648 89.947592 196.424648 200.883193C706.819081 557.032636 510.394433 780.898263 510.394433 780.898263z" p-id="19131" fill="#4eb3f2"></path><path d="M510.394433 328.910055c-54.232159 0-98.207719 44.974307-98.207719 100.441597 0 55.473429 43.973514 100.44262 98.207719 100.44262 54.231135 0 98.213859-44.969191 98.213859-100.44262C608.608292 373.884362 564.625568 328.910055 510.394433 328.910055z" p-id="19132" fill="#4eb3f2"></path></svg>