<?xml version="1.0" standalone="no"?><!DOCTYPE svg PUBLIC "-//W3C//DTD SVG 1.1//EN" "http://www.w3.org/Graphics/SVG/1.1/DTD/svg11.dtd"><svg t="1508554554651" class="icon" style="" viewBox="0 0 1024 1024" version="1.1" xmlns="http://www.w3.org/2000/svg" p-id="9667" xmlns:xlink="http://www.w3.org/1999/xlink" width="32" height="32"><defs><style type="text/css"></style></defs><path d="M505.483636 23.319273C235.613091 26.926545 19.712 248.669091 23.319273 518.609455c3.607273 269.754182 225.349818 485.725091 495.220364 482.094545 269.870545-3.607273 485.771636-225.349818 482.164364-495.290182C997.143273 235.613091 775.354182 19.712 505.483636 23.319273L505.483636 23.319273zM559.662545 186.205091c49.664 0 64.325818 28.788364 64.325818 61.765818 0 41.192727-33.000727 79.266909-89.250909 79.266909-47.057455 0-69.445818-23.691636-68.119273-62.789818C466.641455 231.470545 494.266182 186.205091 559.662545 186.205091zM432.267636 817.477818c-33.954909 0-58.810182-20.619636-35.072-111.243636l38.935273-160.651636c6.749091-25.762909 7.866182-36.072727 0-36.072727-10.146909 0-54.248727 17.803636-80.314182 35.328l-16.942545-27.787636c82.618182-68.957091 177.594182-109.428364 218.298182-109.428364 33.931636 0 39.563636 40.168727 22.621091 101.934545l-44.613818 168.936727c-7.866182 29.858909-4.468364 40.168727 3.397818 40.168727 10.146909 0 43.566545-12.334545 76.381091-38.144l19.176727 25.762909C553.867636 786.548364 466.269091 817.477818 432.267636 817.477818L432.267636 817.477818z" p-id="9668" fill="#d7b7d5"></path></svg>