<?xml version="1.0" standalone="no"?><!DOCTYPE svg PUBLIC "-//W3C//DTD SVG 1.1//EN" "http://www.w3.org/Graphics/SVG/1.1/DTD/svg11.dtd"><svg t="1508203415897" class="icon" style="" viewBox="0 0 1024 1024" version="1.1" xmlns="http://www.w3.org/2000/svg" p-id="10040" xmlns:xlink="http://www.w3.org/1999/xlink" width="32" height="32"><defs><style type="text/css"></style></defs><path d="M884.376 80H1.252a1.252 1.252 0 0 0-1.252 1.248v56.372a1.244 1.244 0 0 0 1.252 1.244h137.128a1.252 1.252 0 0 1 1.256 1.252v801.692A45.848 45.848 0 0 0 206.016 982.46l252.148-124.952a121.372 121.372 0 0 1 107.7 0l253.4 125.572a44.984 44.984 0 0 0 65.12-39.892V140.116a1.256 1.256 0 0 1 1.256-1.252h137.132a1.248 1.248 0 0 0 1.26-1.244V81.248a1.256 1.256 0 0 0-1.26-1.248h-138.4z m-53.68 852.892l-280.4-138.956a86.252 86.252 0 0 0-76.54 0l-276.616 132.436c-0.832 0.4 0-787.576 0-787.576l639.744 0.068c-0.016 2.18-6.188 790.04-6.188 794.028zM292.816 474.284q33.272-7.632 63.82-15.028V352.284H296.888v-31.396h59.744V233.872h33.488v87.016h59.28v31.396h-59.28v98.676q24.424-6.288 47.064-12.56 1.812 22.872 3.172 33.2-26.04 6.96-50.236 13.46V619.6q0 49.336-45.256 49.34-15.388 0-42.544-0.9a264.056 264.056 0 0 0-5.884-35.436 365.104 365.104 0 0 0 40.284 3.144q19.904 0 19.912-22.88V494.24q-31.236 8.748-59.288 16.8z m162.028-217.536h265.652Q719.576 311.024 716.416 368q-4.068 66.4-66.976 67.724-32.596 0.908-79.2 0-3.172-22.4-6.336-37.2 42.536 3.6 76.94 3.6 38.456 0 40.724-39.016 2.716-32.74 3.172-74.452H564.816q-2.04 56.732-19.016 88.352-23.072 43.064-85.08 78.944-9.496-13.004-23.532-29.6 56.564-30.492 75.128-62.344 15.6-23.764 17.2-75.348h-74.676v-31.848z m14.48 217.084h241.664v200.04h-34.4v-30.948h-172.88v31.396h-34.4v-200.488z m207.272 31.848h-172.88v106.296h172.88V505.68z" p-id="10041" fill="#d81e06"></path></svg>