<?xml version="1.0" standalone="no"?><!DOCTYPE svg PUBLIC "-//W3C//DTD SVG 1.1//EN" "http://www.w3.org/Graphics/SVG/1.1/DTD/svg11.dtd"><svg t="1508118134250" class="icon" style="" viewBox="0 0 1024 1024" version="1.1" xmlns="http://www.w3.org/2000/svg" p-id="5062" xmlns:xlink="http://www.w3.org/1999/xlink" width="32" height="32"><defs><style type="text/css"></style></defs><path d="M992 288L782.4 288l65.6-128 80 0c17.6 0 32-14.4 32-32 0-17.6-14.4-32-32-32l-128 0-99.2 192L324.8 288 224 96 96 96C78.4 96 64 110.4 64 128c0 17.6 14.4 32 32 32l80 0 68.8 128L32 288c-17.6 0-32 14.4-32 32 0 17.6 14.4 32 32 32l32 0 32 448c0 70.4 57.6 128 128 128l544 0c70.4 0 128-57.6 128-128l64-448 32 0c17.6 0 32-14.4 32-32C1024 302.4 1009.6 288 992 288zM320 864l-96 0c-35.2 0-64-28.8-64-64l-4.8-64L320 736 320 864zM320 672L150.4 672l-9.6-128L320 544 320 672zM320 480L137.6 480 128 352l192 0L320 480zM640 864L384 864l0-128 256 0L640 864zM640 672L384 672l0-128 256 0L640 672zM640 480L384 480l0-128 256 0L640 480zM832 800c0 35.2-28.8 64-64 64l-64 0 0-128 137.6 0L832 800zM849.6 672L704 672l0-128 164.8 0L849.6 672zM878.4 480L704 480l0-128 192 0L878.4 480z" fill="#ffffff" p-id="5063"></path></svg>