<?xml version="1.0" standalone="no"?><!DOCTYPE svg PUBLIC "-//W3C//DTD SVG 1.1//EN" "http://www.w3.org/Graphics/SVG/1.1/DTD/svg11.dtd"><svg t="1510114203068" class="icon" style="" viewBox="0 0 1024 1024" version="1.1" xmlns="http://www.w3.org/2000/svg" p-id="2243" xmlns:xlink="http://www.w3.org/1999/xlink" width="32" height="32"><defs><style type="text/css"></style></defs><path d="M863.73295331 2.34963399h-704.78272398c-86.49198706 0-156.61864163 70.12898361-156.61864163 156.61864164V863.74983566c0 86.49315101 70.12549063 156.61980672 156.61864163 156.61980559h704.78388793c86.48965803 0 156.61864163-70.12549063 156.61864164-156.61980559V158.96827563c-0.00116395-86.48965803-70.12898361-156.61864163-156.61980559-156.61864164z m-73.87568582 743.13576676c-69.34192014-42.31048192-165.18319673-93.05162525-287.54129124-152.18500608v276.07065714h-64.23765106v-375.48515442h64.23765106v87.94386318l31.35446585-40.53260402c121.34515939 55.57762389 219.99587897 104.76908999 295.95215872 147.59535502l-39.76533333 56.59288918z m82.59159836-279.12925981H133.71296995v-58.12044459h305.1302969V116.10475293h64.238815v113.94722816h321.18941924v56.59172522H503.08208185v121.59199004h369.366784v58.12044459z" p-id="2244" fill="#1296db"></path></svg>