<?xml version="1.0" standalone="no"?><!DOCTYPE svg PUBLIC "-//W3C//DTD SVG 1.1//EN" "http://www.w3.org/Graphics/SVG/1.1/DTD/svg11.dtd"><svg t="1508134640260" class="icon" style="" viewBox="0 0 1024 1024" version="1.1" xmlns="http://www.w3.org/2000/svg" p-id="1141" xmlns:xlink="http://www.w3.org/1999/xlink" width="32" height="32"><defs><style type="text/css"></style></defs><path d="M354.93 773.921c14.459 0 26.158-11.7 26.158-26.158V460.025c0-14.459-11.699-26.158-26.158-26.158s-26.158 11.701-26.158 26.158v287.739c0 14.459 11.7 26.157 26.158 26.157z m156.95 0c14.46 0 26.158-11.7 26.158-26.158V460.025c0-14.459-11.7-26.158-26.158-26.158s-26.158 11.701-26.158 26.158v287.739c-0.001 14.459 11.698 26.157 26.158 26.157z m156.949 0c14.459 0 26.158-11.7 26.158-26.158V460.025c0-14.459-11.7-26.158-26.158-26.158s-26.158 11.701-26.158 26.158v287.739c0 14.459 11.699 26.157 26.158 26.157z m130.789-601.637H691.281c-11.7-45.01-52.316-78.474-100.928-78.474H433.404c-48.612 0-89.229 33.464-100.928 78.474H224.14c-57.706 0-104.632 46.953-104.632 104.633v26.159h26.158v26.158h52.316v497.004c0 57.681 46.927 104.632 104.632 104.632h418.53c57.708 0 104.633-46.952 104.633-104.632V329.233h52.316v-26.158h26.158v-26.159c0-57.68-46.925-104.632-104.632-104.632z m-366.213-26.158h156.949c19.26 0 35.967 10.601 45.037 26.158h-247.02c9.069-15.557 25.775-26.158 45.036-26.158zM773.46 826.237c0 28.866-23.475 52.316-52.316 52.316h-418.53c-28.84 0-55.943-23.451-55.943-52.316l3.627-497.004H773.46v497.004zM171.823 276.916c0-28.866 23.477-52.316 52.316-52.316h575.48c28.842 0 52.316 23.451 52.316 52.316H171.823z" p-id="1142" fill="#565656"></path></svg>