<?xml version="1.0" standalone="no"?><!DOCTYPE svg PUBLIC "-//W3C//DTD SVG 1.1//EN" "http://www.w3.org/Graphics/SVG/1.1/DTD/svg11.dtd"><svg t="1507889864857" class="icon" style="" viewBox="0 0 1024 1024" version="1.1" xmlns="http://www.w3.org/2000/svg" p-id="6352" xmlns:xlink="http://www.w3.org/1999/xlink" width="32" height="32"><defs><style type="text/css"></style></defs><path d="M452.693333 230.613333c16.512-16.554667 48.981333-30.976 72.490667-32.256l256.170667-13.866666c47.061333-2.56 83.029333 33.493333 80.341333 80.341333l-14.592 255.445333c-1.365333 23.466667-15.658667 55.637333-32.384 72.362667l-335.701333 335.744a85.418667 85.418667 0 0 1-120.746667-0.512l-240.810667-240.853333a85.674667 85.674667 0 0 1-0.512-120.704l335.744-335.701334z m45.226667 45.226667l-335.701333 335.744a21.717333 21.717333 0 0 0 0.512 30.165333l240.853333 240.853334c8.533333 8.533333 22.101333 8.576 30.165333 0.512l335.701334-335.701334c5.546667-5.546667 13.269333-22.912 13.738666-30.805333l14.592-255.402667c0.512-8.746667-4.010667-13.269333-12.970666-12.8l-256.170667 13.866667c-7.808 0.426667-25.344 8.234667-30.72 13.610667z m147.242667 177.322667a64 64 0 1 1 0-128 64 64 0 0 1 0 128z m0-42.666667a21.333333 21.333333 0 1 0 0-42.666667 21.333333 21.333333 0 0 0 0 42.666667z" p-id="6353" fill="#fb4136"></path></svg>