<?xml version="1.0" standalone="no"?><!DOCTYPE svg PUBLIC "-//W3C//DTD SVG 1.1//EN" "http://www.w3.org/Graphics/SVG/1.1/DTD/svg11.dtd"><svg t="1510712276639" class="icon" style="" viewBox="0 0 1024 1024" version="1.1" xmlns="http://www.w3.org/2000/svg" p-id="2046" xmlns:xlink="http://www.w3.org/1999/xlink" width="200" height="200"><defs><style type="text/css"></style></defs><path d="M514.69653334 496.70826667m-480.59733334 0a480.59733333 480.59733333 0 1 0 961.19466667 0 480.59733333 480.59733333 0 1 0-961.19466667 0Z" fill="#e25644" p-id="2047"></path><path d="M702.53 377.6H474.05000001l24.95999999-30.72c11.52-13.44 113.28-138.24 188.16000001-128.64h5.76l3.83999999 3.84c5.76 5.76 57.6 51.84 51.84 99.84-1.92 15.36-11.52 38.4-44.15999999 53.76l-1.92000001 1.92z m-145.92-38.4h136.32000001c17.28-9.6 19.2-19.2 19.19999999-21.12 1.92-21.12-21.12-49.92-34.56-61.44-32.64 0-82.56 42.24-120.96 82.56z" fill="#FFFFFF" p-id="2048"></path><path d="M550.85 377.6H324.29000001l-3.84000001-1.92c-32.64-15.36-42.24-38.4-44.16-53.76-5.76-48 46.08-96 51.84-99.84l3.84-3.84h5.76c74.88-9.6 176.64 115.2 188.16000001 128.64L550.85 377.6z m-218.88-38.4h136.32000001c-38.4-40.32-88.32-82.56-120.96-84.48-13.44 13.44-36.48 42.24-34.56 61.44 1.92 5.76 1.92 13.44 19.19999999 23.04z" fill="#FFFFFF" p-id="2049"></path><path d="M733.25000001 467.84H293.57c-26.88 0-48-21.12-48-48s21.12-48 48-48h439.68000001c26.88 0 48 21.12 47.99999999 48 1.92 26.88-21.12 48-47.99999999 48z" fill="#ffffff" p-id="2050"></path><path d="M683.33 761.6H345.41c-21.12 0-38.4-17.28-38.39999999-38.4V467.84h414.72V723.2c0 21.12-17.28 38.4-38.40000001 38.4z" fill="#ffffff" p-id="2051"></path><path d="M489.41 346.88h48.00000001V761.6h-48.00000001z" fill="#FFFFFF" p-id="2052"></path></svg>