<?xml version="1.0" standalone="no"?><!DOCTYPE svg PUBLIC "-//W3C//DTD SVG 1.1//EN" "http://www.w3.org/Graphics/SVG/1.1/DTD/svg11.dtd"><svg t="1510297905660" class="icon" style="" viewBox="0 0 1024 1024" version="1.1" xmlns="http://www.w3.org/2000/svg" p-id="2508" xmlns:xlink="http://www.w3.org/1999/xlink" width="32" height="32"><defs><style type="text/css"></style></defs><path d="M536.576 838.656c7.168 70.656 66.048 125.952 137.728 125.952h153.088c76.288 0 138.24-62.976 138.24-140.8v-152.576c0-76.8-60.416-139.264-135.68-140.288h-293.888l0.512 307.712zM536.576 177.152c7.168-70.656 66.048-125.952 137.728-125.952h153.088c76.288 0 138.24 62.976 138.24 140.8v152.576c0 76.8-60.416 139.264-135.68 140.288h-293.888l0.512-307.712zM481.792 838.656c-7.168 70.656-66.048 125.952-137.216 125.952h-153.6c-76.288 0-138.24-62.976-138.24-140.8v-152.576c0-76.8 60.416-139.264 135.68-140.288h293.888l-0.512 307.712zM481.792 177.152C474.624 106.496 415.744 51.2 344.576 51.2h-153.6c-76.288 0-138.24 62.976-138.24 140.8v152.576c0 76.8 60.416 139.264 135.68 140.288h293.888l-0.512-307.712z" fill="#999999" p-id="2509"></path></svg>