<?xml version="1.0" standalone="no"?><!DOCTYPE svg PUBLIC "-//W3C//DTD SVG 1.1//EN" "http://www.w3.org/Graphics/SVG/1.1/DTD/svg11.dtd"><svg t="1510039005182" class="icon" style="" viewBox="0 0 1024 1024" version="1.1" xmlns="http://www.w3.org/2000/svg" p-id="4809" xmlns:xlink="http://www.w3.org/1999/xlink" width="32" height="32"><defs><style type="text/css"></style></defs><path d="M912 662.528c-0.64-4.16 0.512-6.464 3.584-9.024 14.08-11.84 22.4-26.944 22.848-45.44 0.576-24.192 0.32-48.448 0.32-72.64 0.064-60.096 0-120.32 0.064-180.416 0-25.728-10.752-45.248-32.704-58.816-21.824-13.568-58.112-8.832-76.16 8.384-64.384 61.248-129.6 121.6-194.56 182.4-2.304 2.112-4.48 4.288-6.528 6.656C614.592 510.528 622.08 537.472 642.944 544.384c13.568 4.416 25.024 0.64 35.2-8.96 42.112-39.552 84.352-78.976 126.656-118.528 1.216-1.088 2.432-2.112 4.48-3.904 0 2.816 0 4.544 0 6.4 0 60.608 0.064 121.28 0 181.888-0.064 18.688 5.76 35.136 19.264 48.192 4.032 3.904 4.864 6.848 3.584 12.288-23.488 95.872-46.72 191.808-70.144 287.744-2.752 11.392-1.216 21.632 6.208 30.784 5.248 6.592 12.608 9.344 20.288 11.648 2.816 0 5.632 0 8.448 0 15.744-3.712 24.704-13.312 28.416-29.248 12.672-53.696 25.984-107.328 39.04-160.96 0.256-1.216 0.768-2.304 1.6-4.736 7.104 49.728 14.016 98.112 20.992 146.432 1.216 8 1.856 16.32 4.608 23.808 5.952 16 22.4 23.488 38.976 18.944 15.168-4.096 24.96-19.712 22.592-36.48-6.208-43.904-12.544-87.744-18.88-131.584C926.976 766.272 919.616 714.368 912 662.528z" p-id="4810" fill="#8a8a8a"></path><path d="M193.728 304.768C176.704 288.832 156.48 284.864 134.72 289.792 104.128 296.704 85.184 322.176 85.12 354.56c-0.128 82.496 0 164.992-0.064 247.488 0 21.696 8.064 39.424 24.96 53.12 1.216 1.088 2.24 3.456 1.984 4.992C107.648 691.2 103.168 722.304 98.688 753.28c-9.344 65.344-18.688 130.688-28.032 196.032-2.432 16.96 7.168 32.768 22.528 36.928 16.64 4.544 32.96-3.008 38.976-18.944 2.432-6.336 3.072-13.312 4.032-20.096 5.312-36.224 10.432-72.576 15.616-108.864 1.92-13.312 3.904-26.624 5.824-39.936 1.024 0.96 1.408 1.92 1.664 3.008 5.376 22.144 10.752 44.224 16.128 66.368 7.872 32.448 15.744 64.832 23.616 97.344 2.56 10.752 8.256 19.136 18.56 23.808 2.944 1.344 6.208 2.112 9.28 3.136 2.816 0 5.632 0 8.448 0 1.024-0.32 1.984-0.704 3.072-1.024 16.96-4.352 27.392-19.712 24.128-36.8-2.688-14.272-6.464-28.288-9.856-42.368-20.544-84.544-41.152-169.088-61.568-253.696-0.384-1.664 0.128-4.48 1.344-5.568 15.232-13.952 22.208-31.232 22.144-51.776-0.064-60.416 0-120.96 0-181.376 0-1.792 0-3.584 0-6.4 1.984 1.728 3.328 2.816 4.48 3.904C260.928 456.128 302.784 495.36 344.64 534.464c2.304 2.112 4.608 4.224 7.168 6.016 10.112 6.72 20.992 7.872 32 2.624 11.328-5.376 17.536-14.656 18.368-27.328 0.768-11.52-4.48-20.224-12.672-27.904C324.224 426.88 258.88 365.888 193.728 304.768z" p-id="4811" fill="#8a8a8a"></path><path d="M170.368 228.544C218.752 217.728 251.52 174.016 248.64 125.568c-2.304-38.72-27.52-73.792-64-86.784C175.68 35.584 165.952 34.24 156.608 32c-4.672 0-9.344 0-14.08 0-4.416 0.768-8.96 1.344-13.312 2.304C77.568 45.76 44.8 92.8 51.584 145.472 58.816 201.472 115.328 240.832 170.368 228.544z" p-id="4812" fill="#8a8a8a"></path><path d="M846.336 226.368c39.04 11.328 73.664 1.28 101.376-28.736 47.04-51.072 26.368-135.232-38.784-158.848-8.896-3.2-18.432-4.48-27.648-6.656-4.672 0-9.344 0-14.08 0-1.472 0.32-3.008 0.768-4.544 0.896-57.152 6.272-97.792 61.632-85.76 117.824C785.152 189.248 808.512 215.424 846.336 226.368z" p-id="4813" fill="#8a8a8a"></path><path d="M560.128 226.88c-23.104-0.256-46.208 0-69.312 0-1.088 0-2.112 0.256-3.904 0.448 0 11.904 0 23.616 0 35.456-11.776 0-22.72 0-34.24 0 0-11.904 0-23.552 0-35.648C450.88 227.008 449.856 226.88 448.704 226.88c-23.04 0-46.208-0.064-69.312 0-2.944 0-5.952 0.128-8.896 0.704C347.072 232 331.008 251.328 330.88 275.712 330.688 311.936 330.752 348.16 330.944 384.384c0 2.24 1.344 5.12 3.008 6.656 25.984 24.576 52.224 48.896 78.272 73.408C417.024 469.12 421.12 474.624 424.896 480 426.88 482.944 428.8 484.224 432.32 484.224 474.24 484.032 516.096 484.096 557.952 484.096c3.712-0.064 7.488-0.128 11.2-0.832 22.976-4.416 39.168-23.872 39.232-47.488 0.128-53.568 0.064-107.136 0-160.704 0-2.368-0.064-4.736-0.448-7.04C603.84 243.776 584.768 227.2 560.128 226.88zM491.264 432.96c0.064 3.904-1.088 5.12-4.928 4.992C475.072 437.696 463.872 437.888 452.608 437.888 451.2 437.888 449.856 437.696 448 437.568c0-23.616 0-46.912 0-70.72-10.048 0-19.648 0-30.528 0 17.728-21.056 34.816-41.216 52.16-61.824 17.28 20.608 34.112 40.768 51.904 61.888-10.752 0-20.224 0-30.4 0 0 1.856 0 3.584 0 5.184C491.2 392.384 491.072 412.672 491.264 432.96z" p-id="4814" fill="#8a8a8a"></path></svg>