<?xml version="1.0" standalone="no"?><!DOCTYPE svg PUBLIC "-//W3C//DTD SVG 1.1//EN" "http://www.w3.org/Graphics/SVG/1.1/DTD/svg11.dtd"><svg t="1510298642597" class="icon" style="" viewBox="0 0 1024 1024" version="1.1" xmlns="http://www.w3.org/2000/svg" p-id="2385" xmlns:xlink="http://www.w3.org/1999/xlink" width="32" height="32"><defs><style type="text/css"></style></defs><path d="M625.585965 392.43745767c1.847068-2.556219 2.775206-7.095605 2.775206-13.633508l0-19.59836c0-6.245238-0.786922-10.437723-2.347464-12.56927-1.567705-2.131547-5.196349-3.195785-10.884908-3.195785l-101.170191 0c-5.696746 0-9.325389 0.785899-10.885931 2.343371-1.567705 1.564635-2.347464 4.901637-2.347464 10.014074l0 23.432689c0 6.537903 1.134847 11.011798 3.414773 13.421684 2.27481 2.416026 6.256494 3.620457 11.952216 3.620457l99.036597 0C620.250446 396.27178667 623.730711 394.99470067 625.585965 392.43745767zM909.325237 146.22282367c-11.907191-10.770298-27.590382-16.666588-43.806715-16.666588-1.478677 0-2.956332 0-4.435009 0.101307-0.893346 0.102331-11.220552 0.714268-27.358091 0.714268-26.746154 0-78.965469-1.828648-128.429021-13.513782-63.87068-15.139815-137.583518-85.255733-159.027923-99.07446-10.81123-7.008624-23.25361-10.465352-35.721573-10.465352-12.416797 0-24.860201 3.455705-35.644825 10.365068-2.600221 1.726318-79.782068 81.287351-155.278529 99.17372-49.437969 11.685133-102.650915 13.513782-129.374556 13.513782-16.140609 0-26.439162-0.611937-27.457352-0.714268-1.403976-0.101307-2.806929-0.101307-4.232394-0.101307-16.242939 0-31.974225 5.89322-43.932582 16.666588-12.977569 11.685133-20.37198 28.042683-20.37198 45.215808l0 154.75255c0 572.069097 388.476709 645.735887 404.947845 648.678916 3.773953 0.613984 7.572466 0.917906 11.372002 0.917906 3.773953 0 7.622608-0.303922 11.345396-0.917906 16.495696-2.943029 407.826406-76.610842 407.826406-648.678916L929.746336 191.43760767C929.745313 174.26550667 922.327366 157.90898067 909.325237 146.22282367zM402.543076 403.51474767l0 258.622222c0 17.609053-7.117095 26.41665-21.344121 26.41665-9.111518 0-15.368012-2.1295-18.782785-6.390547-3.414773-4.261047-5.122671-10.93812-5.122671-20.026102L357.293499 497.25061867c-7.40362 10.797927-14.513552 16.690124-21.344121 17.681708-6.829546 0.998747-13.09218-0.917906-18.781762-5.752004-7.40362-5.113461-11.098779-11.217483-11.098779-18.321274 0-7.095605 4.121877-16.616446 12.378935-28.545126 16.788361-23.861454 30.094412-48.146557 39.913035-72.858378 9.8176-24.711821 18.142196-51.128471 24.971741-79.247902 2.27481-11.357675 5.40408-19.665899 9.391904-24.925692 3.981684-5.251607 10.952446-7.309476 20.916379-6.176676 9.391904 1.423419 15.081487 5.539156 17.075911 12.354376 1.987261 6.818289 1.280156 16.616446-2.134617 29.398564-4.269233 16.190751-8.469905 30.964222-12.593829 44.311205C411.861302 378.52356367 407.378198 391.30670467 402.543076 403.51474767zM716.510814 638.06573767c-1.280156 3.547803-3.349281 7.455809-6.189979 11.716856-5.696746 7.668657-12.239765 10.506285-19.636223 8.521071-7.40362-1.990331-15.654538-6.816243-24.758893-14.485923-18.502399-15.058974-34.010605-29.471219-46.529733-43.245943-12.526291-13.774725-23.624047-28.187993-33.296337-43.246967L586.099648 664.69421167c0 9.086959-1.707898 15.552208-5.122671 19.386536-3.414773 3.834328-9.251711 5.752004-17.501606 5.752004-7.971555 0-14.161534-1.917676-18.568914-5.752004-4.41659-3.835352-6.616698-10.299577-6.616698-19.386536l0-89.473801c-7.970532 11.649318-17.008372 22.443152-27.106358 32.381501-10.105149 9.940396-22.838148 21.303188-38.205137 34.084283-12.526291 9.652847-22.771633 15.052834-30.736025 16.190751-7.970532 1.131777-14.374382-1.851161-19.209504-8.946766-2.28095-3.695159-3.987824-7.243985-5.122671-10.651594-1.139963-3.40761-1.214664-6.963599-0.212848-10.651594 0.99363-3.695159 3.200902-7.528464 6.615675-11.504008 3.414773-3.980661 8.537444-8.374738 15.366989-13.207813 4.836145-3.40761 10.525728-7.80885 17.075911-13.207813 6.544043-5.392824 13.373589-11.504008 20.48966-18.322297 7.110955-6.815219 14.227026-14.198374 21.345144-22.154579 7.108908-7.949043 13.799284-16.190751 20.061918-24.712845l-69.15401 0c-9.111518 0-15.58086-2.055822-19.422352-6.1777-3.842515-4.113691-5.763261-10.012028-5.763261-17.680684 0-8.235568 1.774413-14.340613 5.336542-18.321274 3.554966-3.975545 10.171664-5.964852 19.84907-5.964852l88.790232 0 0-31.103392-45.249577 0c-15.654538 0-26.539446-3.687996-32.654724-11.078313-6.123464-7.383154-9.179057-18.74697-9.179057-34.084283l0-60.500932c0-15.33936 3.054569-26.630521 9.179057-33.872458 6.115278-7.243985 17.000186-10.866489 32.654724-10.866489l144.285151 0c14.793938 0 25.25315 3.483334 31.375591 10.43977 6.116301 6.962575 9.17701 18.534122 9.17701 34.724873l0 60.075237c0 15.337313-2.847861 26.701129-8.537444 34.084283-5.696746 7.390317-16.368806 11.078313-32.016181 11.078313l-51.224662 0 0 31.103392 106.291838 0c9.104355 0 15.366989 1.990331 18.781762 5.964852 3.415796 3.979638 5.122671 10.084683 5.122671 18.321274 0 7.668657-1.780553 13.566994-5.335519 17.680684-3.562129 4.121877-9.752108 6.1777-18.568914 6.1777l-76.411297 0c13.939477 17.32969 27.886117 32.596396 41.834804 45.802162 13.939477 13.207813 26.03905 23.506367 36.283368 30.889521 6.829546 5.113461 12.092409 9.800203 15.794731 14.06125 3.695159 4.261047 6.043646 8.234545 7.04444 11.929704C717.931163 630.88826867 717.79097 634.51077267 716.510814 638.06573767z" fill="#999999" p-id="2386"></path></svg>