<?xml version="1.0" standalone="no"?><!DOCTYPE svg PUBLIC "-//W3C//DTD SVG 1.1//EN" "http://www.w3.org/Graphics/SVG/1.1/DTD/svg11.dtd"><svg t="1509521386733" class="icon" style="" viewBox="0 0 1024 1024" version="1.1" xmlns="http://www.w3.org/2000/svg" p-id="2508" xmlns:xlink="http://www.w3.org/1999/xlink" width="32" height="32"><defs><style type="text/css"></style></defs><path d="M527.00387556 101.61645037c-230.21909333 0-417.49617778 188.22485333-417.49617778 419.60903111 0 231.37848889 187.27708445 415.38446222 417.49617778 415.38446222 230.21568 0 417.49390222-184.00824889 417.49390222-415.38446222 0-231.38417778-187.27822222-419.60903111-417.49390222-419.60903111z m0 792.08675555c-206.88213333 0-374.59171555-167.70958222-374.59171556-374.59057777s167.71072-374.59057778 374.59057778-374.59057778 374.59285333 167.70958222 374.59285334 374.59057778-167.71072 374.59057778-374.59285334 374.59057777z" fill="#8a8a8a" p-id="2509"></path><path d="M697.49873778 531.98317037H522.87943112V266.45541925c0-11.84768-9.60512-21.45166222-21.45393778-21.45166222-11.84768 0-21.45166222 9.60284445-21.45166222 21.45166222v283.904a21.39249778 21.39249778 0 0 0-0.24462223 3.072c0 7.49454222 3.84796445 14.08 9.66883556 17.91772445a21.35153778 21.35153778 0 0 0 12.02744889 3.68981333c0.83854222 0 1.66115555-0.06030222 2.47352888-0.1536H697.4976c11.84768 0 21.45393778-9.60512 21.45393778-21.4528s-9.60512-21.45166222-21.4528-21.45166221z" fill="#8a8a8a" p-id="2510"></path></svg>