<?xml version="1.0" standalone="no"?><!DOCTYPE svg PUBLIC "-//W3C//DTD SVG 1.1//EN" "http://www.w3.org/Graphics/SVG/1.1/DTD/svg11.dtd"><svg t="1508556275854" class="icon" style="" viewBox="0 0 1024 1024" version="1.1" xmlns="http://www.w3.org/2000/svg" p-id="21218" xmlns:xlink="http://www.w3.org/1999/xlink" width="32" height="32"><defs><style type="text/css"></style></defs><path d="M860.096 428.749c-10.522 0-19.052 8.515-19.114 19.018V786.96c0 21.126-17.125 38.23-38.228 38.23H229.22c-21.103 0-38.228-17.104-38.228-38.23V233.596c0-21.126 17.125-38.227 38.228-38.227h369.394c10.544-0.017 19.097-8.57 19.097-19.115 0-10.56-8.553-19.114-19.097-19.114H225.399c-40.123 0-72.636 32.514-72.636 72.635v561.006c0 40.126 32.515 72.64 72.636 72.64h581.177c40.123 0 72.635-32.518 72.635-72.64V447.766c-0.057-10.503-8.592-19.017-19.115-19.017zM504.732 673.686l363.68-363.645c21.634-21.621 19.645-58.846-4.456-82.904l-34.346-34.39c-24.079-24.101-61.288-26.108-82.926-4.491l-363.679 363.72 121.729 121.71h-0.002zM773.78 215.412c8.22-8.199 22.326-7.454 31.475 1.675l34.364 34.367c9.123 9.185 9.894 23.273 1.674 31.45l-40.358 40.357-66.98-68.027 39.825-39.822z m-1.398 136.403l-270.388 270.43-67.535-67.513 270.945-270.94 66.98 68.02v0.003zM382.83 552.665l-37.382 136.986c-1.635 5.99 0.078 12.335 4.411 16.753a17.377 17.377 0 0 0 16.73 4.412l137-37.36-28.041-28.094-88.955 24.307 24.258-89.003-28.02-28z" p-id="21219" fill="#8a8a8a"></path></svg>