<?xml version="1.0" standalone="no"?><!DOCTYPE svg PUBLIC "-//W3C//DTD SVG 1.1//EN" "http://www.w3.org/Graphics/SVG/1.1/DTD/svg11.dtd"><svg t="1510126985908" class="icon" style="" viewBox="0 0 1024 1024" version="1.1" xmlns="http://www.w3.org/2000/svg" p-id="2018" xmlns:xlink="http://www.w3.org/1999/xlink" width="32" height="32"><defs><style type="text/css"></style></defs><path d="M319.60289551 381.29701661l52.47132451 0 0 69.97975399-52.47132451 0 0-69.97975399Z" fill="#8a8a8a" p-id="2019"></path><path d="M319.60289551 538.72897783l52.47132451 0 0 69.96176631-52.47132451 0 0-69.96176631Z" fill="#8a8a8a" p-id="2020"></path><path d="M319.60289551 696.14385049l52.47132451 0 0 69.96176631-52.47132451 0 0-69.96176631Z" fill="#8a8a8a" p-id="2021"></path><path d="M686.90396533 118.95748262L337.09333643 118.95748262c-67.51902217 0-122.43308994 54.93115635-122.43308995 122.43308994l0 542.20548427c0 67.50283271 54.91406865 122.39891367 122.43308995 122.39891367l349.8097289 0c67.51902217 0 122.43488906-54.89608008 122.43488907-122.39891367L809.33795527 241.39057344C809.33795527 173.88863984 754.4229875 118.95748262 686.90396533 118.95748262zM774.35707168 783.59695683c0 48.20101963-39.23409902 87.45220722-87.45310723 87.45220723L337.09333643 871.04916494c-48.2181082 0-87.45220722-39.25208672-87.45220723-87.45220723L249.6411292 241.39057344c0-48.23519677 39.23499902-87.45220722 87.45220723-87.45220722l349.8097289-1e-8c48.21900732 0 87.45310723 39.21701045 87.45310723 87.45220723L774.35617256 783.59695683z" fill="#8a8a8a" p-id="2022"></path><path d="M354.58467734 206.39260214l314.8288462 1e-8 0 34.99887041-314.8288462 0 0-34.99887041Z" fill="#8a8a8a" p-id="2023"></path><path d="M424.54734278 398.78835752l279.84796347 0 0 34.99797129-279.84796347 0-1e-8-34.99797129Z" fill="#8a8a8a" p-id="2024"></path><path d="M424.54734278 556.22031875l279.84796347 0 0 34.96289502-279.84796347 0-1e-8-34.96289502Z" fill="#8a8a8a" p-id="2025"></path><path d="M424.54734278 713.63429229l279.84796347 0 0 34.98178271-279.84796347 0-1e-8-34.98178271Z" fill="#8a8a8a" p-id="2026"></path></svg>