<?xml version="1.0" standalone="no"?><!DOCTYPE svg PUBLIC "-//W3C//DTD SVG 1.1//EN" "http://www.w3.org/Graphics/SVG/1.1/DTD/svg11.dtd"><svg t="1509521379859" class="icon" style="" viewBox="0 0 1024 1024" version="1.1" xmlns="http://www.w3.org/2000/svg" p-id="2292" xmlns:xlink="http://www.w3.org/1999/xlink" width="32" height="32"><defs><style type="text/css"></style></defs><path d="M511.99176026 90.19915771C279.03601075 90.19915771 90.19091797 279.04507446 90.19091797 511.99588013c0 232.96151734 188.84509278 421.80496215 421.80166626 421.80496216 232.96975708 0 421.81649781-188.84344482 421.8164978-421.80496216C933.80743408 279.04425049 744.96481323 90.19915771 511.99176026 90.19915771zM511.99176026 901.35519409c-215.0392456 0-389.35766602-174.30441284-389.35766602-389.35931396 0-215.03430175 174.31759643-389.35354614 389.35766602-389.35354615 215.03512573 0 389.36837767 174.32006836 389.36837768 389.35354615C901.36178589 727.05078125 727.03100586 901.35519409 511.99176026 901.35519409z" p-id="2293" fill="#8a8a8a"></path><path d="M596.61230469 337.40966797l-55.58120727 102.30551148c-14.765625 27.68554688-23.8359375 46.19448852-27.10546875 55.31835937l-1.00277711 0c-9.7550354-22.25390625-37.28237915-74.72460938-82.68667602-157.62387085l-52.20703125 0L475.11230469 504.15576172l-79.62890625 0 0 36.91488648 93.33984375 0 0 50.78237914-93.33984375 0 0 37.3359375 93.33984375 0 0 73.88085938L535.07128906 703.06982422l0-73.88085938 90.0703125 0 0-37.3359375L535.17758179 591.85302734l0-50.73046875 90.01757814 0 0-36.91323852-77.25750735 0 98.03402711-166.74609376-49.359375 0L596.61230469 337.40966797 596.61230469 337.40966797z" p-id="2294" fill="#8a8a8a"></path></svg>