<?xml version="1.0" standalone="no"?><!DOCTYPE svg PUBLIC "-//W3C//DTD SVG 1.1//EN" "http://www.w3.org/Graphics/SVG/1.1/DTD/svg11.dtd"><svg t="1506494146338" class="icon" style="" viewBox="0 0 1024 1024" version="1.1" xmlns="http://www.w3.org/2000/svg" p-id="2804" xmlns:xlink="http://www.w3.org/1999/xlink" width="16" height="16"><defs><style type="text/css"></style></defs><path d="M634.496 256.64c0 47.296 38.016 85.568 84.864 85.568 46.848 0 84.8-38.272 84.8-85.504 0-47.232-37.952-85.568-84.8-85.568s-84.864 38.336-84.864 85.568z m105.216 236.928c0 42.496 34.176 76.992 76.352 76.992s76.352-34.496 76.352-76.992S858.24 416.64 816 416.64s-76.352 34.432-76.352 76.928z m-94.208 240.32c0 37.76 30.4 68.48 67.84 68.48 37.568 0 67.904-30.72 67.904-68.48 0-37.76-30.336-68.416-67.84-68.416-37.504 0-67.84 30.656-67.84 68.48z m-226.944 91.52c0 33.088 26.624 59.84 59.456 59.84a59.648 59.648 0 0 0 59.328-59.84 59.648 59.648 0 0 0-59.328-59.84 59.648 59.648 0 0 0-59.392 59.84zM196.352 722.752c0 28.352 22.784 51.328 50.88 51.328 28.16 0 50.88-22.976 50.88-51.328a51.136 51.136 0 0 0-50.88-51.264 51.136 51.136 0 0 0-50.88 51.264z m-83.136-232.576c0 23.616 18.944 42.752 42.368 42.752 23.424 0 42.432-19.2 42.432-42.752a42.56 42.56 0 0 0-42.432-42.752c-23.424 0-42.368 19.136-42.368 42.752z m107.712-234.368c0 18.88 15.168 34.24 33.92 34.24 18.752 0 33.92-15.36 33.92-34.24a34.048 34.048 0 0 0-33.92-34.176c-18.752 0-33.92 15.296-33.92 34.176z m232.448-94.912a25.6 25.6 0 0 0 25.472 25.6 25.6 25.6 0 0 0 25.408-25.6 25.6 25.6 0 0 0-25.408-25.664 25.6 25.6 0 0 0-25.472 25.6z" p-id="2805" fill="#8a8a8a"></path></svg>