<?xml version="1.0" standalone="no"?><!DOCTYPE svg PUBLIC "-//W3C//DTD SVG 1.1//EN" "http://www.w3.org/Graphics/SVG/1.1/DTD/svg11.dtd"><svg t="1508230678425" class="icon" style="" viewBox="0 0 1024 1024" version="1.1" xmlns="http://www.w3.org/2000/svg" p-id="6764" xmlns:xlink="http://www.w3.org/1999/xlink" width="32" height="32"><defs><style type="text/css"></style></defs><path d="M512.335 26.484c-205.651 0-376.89 176.588-323.215 375.993 60.682 225.58 325.162 477.377 325.162 477.377s259.873-250.659 321.782-476.185c54.657-199.165-118.085-377.163-323.719-377.163v0zM792.817 392.222c-53.167 198.244-278.751 425.869-278.751 425.869s-229.574-230.098-281.648-428.386c-46.094-175.269 103.362-321.699 279.958-321.699 176.543-0.001 327.387 149.139 280.437 324.211v0zM792.817 392.222z" p-id="6765" fill="#1ca6f8"></path><path d="M512.718 254.45c-61.076 0-110.617 46.405-110.617 103.703s49.54 103.67 110.617 103.67c61.091 0 110.588-46.395 110.588-103.67s-49.499-103.703-110.588-103.703v0zM512.718 437.238c-46.608 0-84.361-35.399-84.361-79.085s37.753-79.085 84.361-79.085c46.589 0 84.347 35.399 84.347 79.085s-37.773 79.085-84.347 79.085v0zM512.718 437.238z" p-id="6766" fill="#1ca6f8"></path><path d="M697.965 785.874c92.9 16.118 154.288 43.908 154.288 75.555 0 49.892-152.113 90.26-339.827 90.26-187.645 0-339.785-40.364-339.785-90.26 0-31.335 60.34-58.985 151.92-75.161l-11.442-42.15c-116.069 23.71-193.935 67.382-193.935 117.312 0 75.203 176.18 136.076 393.543 136.076 217.285 0 393.459-60.881 393.459-136.076 0-49.971-78.002-93.723-194.291-117.332l-13.948 41.779zM697.965 785.874z" p-id="6767" fill="#1ca6f8"></path></svg>