<?xml version="1.0" standalone="no"?><!DOCTYPE svg PUBLIC "-//W3C//DTD SVG 1.1//EN" "http://www.w3.org/Graphics/SVG/1.1/DTD/svg11.dtd"><svg t="1507704033364" class="icon" style="" viewBox="0 0 1024 1024" version="1.1" xmlns="http://www.w3.org/2000/svg" p-id="3934" xmlns:xlink="http://www.w3.org/1999/xlink" width="32" height="32"><defs><style type="text/css"></style></defs><path d="M522.8 957.4h-21.7l-6.1-8.6c-9.6-13.7-234.1-339.2-265.8-412-32.3-74.1-38-96.5-38-151.1C191.3 209 335 65.6 511.3 65.6c177.3 0 321 143.7 321 320.1 0 54.3-5.7 77-38 151.1-31.6 72.5-256.2 398-265.8 412l-5.7 8.6z m-10.2-851.2c-154.9 0-280.4 125.5-280.4 279.5 0 48.9 4.2 65.2 34.5 134.8 25.2 58.1 192 303.1 245.3 381.1 53.3-77.9 220.1-322.9 245.3-381.1 30.3-69.6 34.5-85.9 34.5-134.8 0.3-154.3-125.2-279.5-279.2-279.5z" fill="#ffffff" p-id="3935"></path><path d="M512 557.8c-81.8 0-148.2-66.4-148.2-148.2S430.2 261.4 512 261.4s148.2 66.4 148.2 148.2S593.8 557.8 512 557.8z m0-255.8c-59.4 0-107.6 48.2-107.6 107.6S452.6 517.2 512 517.2 619.6 469 619.6 409.6 571.4 302 512 302z" fill="#ffffff" p-id="3936"></path></svg>