<?xml version="1.0" standalone="no"?><!DOCTYPE svg PUBLIC "-//W3C//DTD SVG 1.1//EN" "http://www.w3.org/Graphics/SVG/1.1/DTD/svg11.dtd"><svg t="1507862532796" class="icon" style="" viewBox="0 0 1024 1024" version="1.1" xmlns="http://www.w3.org/2000/svg" p-id="2794" xmlns:xlink="http://www.w3.org/1999/xlink" width="32" height="32"><defs><style type="text/css"></style></defs><path d="M511.067 17.566c-272.241 0-492.934 220.693-492.934 492.934s220.693 492.934 492.934 492.934 492.934-220.693 492.934-492.934S783.308 17.566 511.067 17.566zM425.625 727.867c0 34.777-18.244 54.65-54.65 59.618-14.905 1.629-37.262 2.484-67.071 2.484-3.339-31.482-7.452-52.166-12.421-62.103-1.667 3.339-4.151 7.452-7.452 12.42-1.667 4.968-3.339 8.264-4.968 9.936-14.905-8.308-35.633-16.533-62.103-24.841 19.873-36.406 37.262-80.308 52.166-131.658l64.587 22.357c-9.936 34.777-22.357 68.738-37.262 101.848 9.936 1.667 19.873 2.484 29.809 2.484 14.905 0 22.357-9.081 22.357-27.325L348.617 583.789 236.833 583.789l0-64.587 111.785 0 0-39.746L226.896 479.456l0-67.071 64.587 0c-6.635-13.238-14.905-28.142-24.841-44.714l62.103-24.841c6.597 9.936 15.722 25.696 27.325 47.198 6.597 9.936 11.565 17.389 14.905 22.357l24.841 0c19.873-33.111 33.111-57.134 39.746-72.039L239.317 340.346l0-67.071 104.332 0c-1.667-3.301-3.339-7.452-4.968-12.421-4.968-11.565-8.308-19.873-9.936-24.841l81.975-14.905c1.629 3.339 3.301 8.308 4.968 14.905 1.629 4.968 5.785 17.389 12.421 37.262l99.364 0 0 67.071-81.975 0c9.936 4.968 31.438 14.087 64.587 27.325-6.635 9.936-16.572 24.841-29.809 44.714l59.618 0 0 67.071L425.625 479.456l0 39.746 104.332 0 0 64.587L425.625 583.789 425.625 727.867zM810.661 412.386l0 79.491-44.714 0 0 300.577L688.94 792.454 688.94 491.877l-52.166 0 0 32.293c-1.667 124.205-28.992 217.746-81.975 280.704-13.276-11.609-32.293-27.325-57.134-47.198-8.308-4.968-14.088-9.125-17.389-12.42 23.174-16.534 40.563-39.746 52.166-69.555l-59.618 34.777c-14.905-31.438-29.809-60.436-44.714-86.944l57.134-29.809c4.968 9.936 14.905 27.325 29.809 52.166 8.269 13.276 14.049 23.212 17.389 29.809 16.534-38.079 24.841-84.46 24.841-139.11L557.283 270.792c91.057-9.936 163.951-24.841 218.601-44.714l34.777 79.491c-53.021 11.603-110.968 21.54-173.887 29.809l0 77.007L810.661 412.385z" p-id="2795" fill="#ffa628"></path></svg>