<?xml version="1.0" standalone="no"?><!DOCTYPE svg PUBLIC "-//W3C//DTD SVG 1.1//EN" "http://www.w3.org/Graphics/SVG/1.1/DTD/svg11.dtd"><svg t="1510712851986" class="icon" style="" viewBox="0 0 1024 1024" version="1.1" xmlns="http://www.w3.org/2000/svg" p-id="7532" xmlns:xlink="http://www.w3.org/1999/xlink" width="200" height="200"><defs><style type="text/css"></style></defs><path d="M531.157827 608.777137c-32.663934 0-48.963155 24.576745-48.963155 61.458747 0 40.960901 16.299221 61.461817 48.963155 61.461817 32.6844 0 48.986691-20.499893 48.986691-61.461817-4.118807-36.882002-16.302291-57.381895-48.986691-61.458747z m175.606507-381.15393c20.417005 49.191352 24.576745 122.878608-16.259312 163.961283-69.527516-270.581602-245.113557-327.969637-245.113557-327.969637 20.417005 139.304719-73.52148 291.001677-167.456897 405.730675-4.118807-57.384965-8.149611-94.269014-36.69883-147.579174-8.149611 102.461603-81.668021 184.506201-106.203834 282.848997-16.300244 86.119403-4.115738 163.967422 57.115836 233.576803 97.970312 94.28948 351.234503 213.136262 608.387257 4.117784 236.945527-241.768369-36.634362-573.727876-93.770663-614.686731z m-289.838178 540.960589h-49.087998v-77.848019h-81.650625v77.848019h-44.952818v-192.616926h44.952818v77.887928h85.786828v-77.887928h44.951795v192.616926z m114.231671 4.074805c-61.23362-4.073782-93.91802-36.886095-97.949846-98.344842 4.136204-65.535599 36.716226-98.345866 97.949846-102.420671 61.295018 4.073782 89.819678 36.885072 93.979418 102.420671-0.001023 61.458747-32.6844 94.270037-93.979418 98.344842z m220.475414-159.804612v159.804612h-44.952818V612.853989h-61.249993v-36.887119h167.45485v36.887119h-61.252039z" fill="#FF2400" p-id="7533"></path></svg>