<?xml version="1.0" standalone="no"?><!DOCTYPE svg PUBLIC "-//W3C//DTD SVG 1.1//EN" "http://www.w3.org/Graphics/SVG/1.1/DTD/svg11.dtd"><svg t="1507621742571" class="icon" style="" viewBox="0 0 1024 1024" version="1.1" xmlns="http://www.w3.org/2000/svg" p-id="5109" xmlns:xlink="http://www.w3.org/1999/xlink" width="48" height="48"><defs><style type="text/css"></style></defs><path d="M818.603 93.234l-55.879 0c-15.456 0-33.289 9.51-33.289 24.967 0 15.456 17.833 30.912 33.289 30.912l55.879 0c33.289 0 55.879 22.59 55.879 55.879l0 643.191c0 33.289-22.59 55.879-55.879 55.879L217.021 904.062c-33.289 0-70.143-22.59-70.143-55.879L146.878 204.993c0-33.289 22.59-55.879 55.879-55.879L272.9 149.114c15.456 0 21.401-15.457 21.401-30.912 0-15.457-5.945-24.967-21.401-24.967l-70.142 0C124.289 93.234 91 141.979 91 206.18l0 636.058c0 68.955 41.611 117.699 117.699 117.699l603.957 0c76.093 0 117.704-40.423 117.704-117.699L930.36 206.18C930.36 141.979 891.126 93.234 818.603 93.234L818.603 93.234zM272.9 345.282c0 15.456 13.081 28.531 28.532 28.531l419.68 0c15.456 0 28.536-13.075 28.536-28.531 0-15.457-13.08-28.536-28.536-28.536l-419.68 0C285.981 316.746 272.9 329.825 272.9 345.282L272.9 345.282zM719.924 471.304 301.432 471.304c-15.451 0-28.532 13.079-28.532 28.536 0 15.452 13.081 28.531 28.532 28.531l419.68 0c15.456 0 28.536-13.079 28.536-28.531C748.46 483.195 735.38 471.304 719.924 471.304L719.924 471.304zM719.924 638.936 301.432 638.936c-15.451 0-28.532 13.08-28.532 28.537 0 15.455 13.081 28.53 28.532 28.53l419.68 0c15.456 0 28.536-13.075 28.536-28.53C748.46 650.827 735.38 638.936 719.924 638.936L719.924 638.936zM414.378 163.381l194.98 0c22.591 0 41.611-22.59 41.611-48.746 0-26.154-19.021-48.745-42.799-48.745L414.378 65.89c-23.778 0-42.799 22.59-42.799 48.745C371.579 140.791 390.6 163.381 414.378 163.381L414.378 163.381zM414.378 163.381" p-id="5110" fill="#1ca6f8"></path></svg>