<?xml version="1.0" standalone="no"?><!DOCTYPE svg PUBLIC "-//W3C//DTD SVG 1.1//EN" "http://www.w3.org/Graphics/SVG/1.1/DTD/svg11.dtd"><svg t="1510111394608" class="icon" style="" viewBox="0 0 1024 1024" version="1.1" xmlns="http://www.w3.org/2000/svg" p-id="2235" xmlns:xlink="http://www.w3.org/1999/xlink" width="32" height="32"><defs><style type="text/css"></style></defs><path d="M572 842a42 42 0 1 0-84 0 42 42 0 0 0 84 0z m-36 0a6 6 0 1 1-12 0 6 6 0 0 1 12 0z" fill="#999999" p-id="2236"></path><path d="M200 776.336A144.192 144.192 0 0 0 344 920h336c79.44 0 144-64.416 144-143.664V223.664A144.192 144.192 0 0 0 680 80H344C264.56 80 200 144.416 200 223.664v552.672zM344 32h336c106.08 0 192 86.4 192 191.664v552.672a191.952 191.952 0 0 1-192 191.664H344c-106.08 0-192-86.4-192-191.664V223.664A191.952 191.952 0 0 1 344 32z" fill="#999999" p-id="2237"></path><path d="M605.024 182h24v-48H430.976v48h24zM819.872 740h24v-48H216.128v48h24z" fill="#999999" p-id="2238"></path></svg>