<?xml version="1.0" standalone="no"?><!DOCTYPE svg PUBLIC "-//W3C//DTD SVG 1.1//EN" "http://www.w3.org/Graphics/SVG/1.1/DTD/svg11.dtd"><svg t="1509593601274" class="icon" style="" viewBox="0 0 1024 1024" version="1.1" xmlns="http://www.w3.org/2000/svg" p-id="4598" xmlns:xlink="http://www.w3.org/1999/xlink" width="32" height="32"><defs><style type="text/css"></style></defs><path d="M762 404.5h-35.8v-73.7c0-127.2-92.7-230.7-206.6-230.7H503c-113.9 0-206.6 103.5-206.6 230.7v73.7h-35.8v-73.7c0-147 108.7-266.6 242.4-266.6h16.6C653.3 64.2 762 183.8 762 330.8v73.7z" p-id="4599" fill="#999999"></path><path d="M797.8 959.6h-573c-49.4 0-89.5-40.2-89.5-89.5v-394c0-49.4 40.2-89.5 89.5-89.5h573c49.4 0 89.5 40.2 89.5 89.5V870c0.1 49.4-40.1 89.6-89.5 89.6z m-573-537.2c-29.6 0-53.7 24.1-53.7 53.7V870c0 29.6 24.1 53.7 53.7 53.7h573c29.6 0 53.7-24.1 53.7-53.7V476.1c0-29.6-24.1-53.7-53.7-53.7h-573z" p-id="4600" fill="#999999"></path><path d="M511.3 834.2h-0.3c-9.9-0.2-17.8-8.3-17.6-18.2 0.7-41.4 1.2-86.6 0.9-108.7-49.1-9-90.4-55.4-90.4-105.9 0-59.2 48.2-107.4 107.4-107.4s107.4 48.2 107.4 107.4c0 33.8-16.2 66-43.3 86.2-8 5.9-19.2 4.3-25.1-3.7-5.9-7.9-4.3-19.1 3.7-25.1 18.3-13.7 28.9-34.6 28.9-57.5 0-39.5-32.1-71.6-71.6-71.6s-71.6 32.1-71.6 71.6c0 36.8 34.8 71.6 71.6 71.6 4.8 0 9.5 2 12.8 5.4 6.7 6.8 7.4 7.5 5.1 138.2-0.1 9.9-8.1 17.7-17.9 17.7z" p-id="4601" fill="#999999"></path></svg>