<?xml version="1.0" standalone="no"?><!DOCTYPE svg PUBLIC "-//W3C//DTD SVG 1.1//EN" "http://www.w3.org/Graphics/SVG/1.1/DTD/svg11.dtd"><svg t="1509593566422" class="icon" style="" viewBox="0 0 1024 1024" version="1.1" xmlns="http://www.w3.org/2000/svg" p-id="3868" xmlns:xlink="http://www.w3.org/1999/xlink" width="32" height="32"><defs><style type="text/css"></style></defs><path d="M913.945838 287.440392c-36.019586-2.455881-72.346158-9.311882-103.351654-19.237734-10.02818-3.069851-20.158689-6.344359-30.289198-10.02818-21.386629-6.242031-50.447886-18.726092-83.397622-36.531228-0.306985-0.204657-0.716299-0.409313-1.023284-0.511642-7.776956-4.195463-15.656241-8.697911-23.740182-13.405016-10.846807-6.242031-21.693614-12.893375-32.438093-19.851704-0.409313-0.306985-0.818627-0.511642-1.22794-0.818627-7.776956-5.01409-15.451584-10.130509-23.023883-15.553912-5.01409-3.376836-9.925852-7.060658-14.939942-10.64215-3.78615-2.762866-7.469971-5.321075-11.256121-8.18627-27.424003-20.465674-54.438693-43.387229-79.816129-68.150695-25.275107 24.763466-52.392126 47.68502-79.816129 68.150695-3.78615 2.865194-7.469971 5.423404-11.256121 8.18627-5.01409 3.581493-9.925852 7.265314-14.939942 10.64215-7.674628 5.321075-15.349256 10.539822-23.023883 15.553912-0.409313 0.306985-0.818627 0.511642-1.22794 0.818627-10.744479 6.958329-21.591286 13.609673-32.438093 19.851704-8.083941 4.707105-15.963226 9.209553-23.740182 13.405016-0.306985 0.204657-0.716299 0.409313-1.023284 0.511642-32.949735 17.805136-62.113321 30.289198-83.397622 36.531228-10.130509 3.683821-20.158689 6.958329-30.289198 10.02818-31.107825 9.925852-67.332068 16.679524-103.351654 19.237734l-0.102328 0c1.023284 16.167882 2.148896 37.65684 3.376836 60.783052 0.204657 0 0.409313 0 0.716299 0 6.037374 86.67213 23.433197 209.875487 49.62926 282.323973 1.125612 3.172179 2.148896 6.446687 3.376836 9.618867 0.511642 1.432597 1.22794 2.865194 1.739582 4.297792C226.196862 806.245228 335.074248 924.025182 465.952233 967.207755l0 0.409313c17.293495 5.730389 31.824123 9.209553 43.387229 11.460777 11.460777-2.251224 26.093734-5.730389 43.387229-11.460777l0-0.409313C683.604677 924.025182 792.482063 806.245228 855.209353 644.361747c0.511642-1.432597 1.22794-2.865194 1.739582-4.297792 1.125612-3.172179 2.148896-6.446687 3.376836-9.618867 26.196063-72.448486 43.591886-195.651844 49.62926-282.323973 0.204657 0 0.511642 0 0.716299 0C911.899271 324.994904 912.922554 303.608274 913.945838 287.440392L913.945838 287.440392 913.945838 287.440392zM866.567803 329.292695l-0.511642 9.516538c-0.511642 2.148896-0.818627 4.40012-1.023284 6.651344-5.62806 80.634756-21.591286 200.154292-47.275707 271.067853-0.716299 1.944239-1.330269 3.888478-2.046567 5.832717-0.409313 1.22794-0.818627 2.455881-1.432597 4.093135-0.511642 1.22794-1.023284 2.455881-1.432597 3.376836-58.327171 150.525032-158.506645 258.890776-275.058659 297.263915-1.841911 0.61397-3.683821 1.330269-5.423404 2.148896-7.879285 2.455881-15.656241 4.604777-23.126212 6.344359-7.469971-1.739582-15.144599-3.78615-23.023883-6.242031-1.739582-0.818627-3.581493-1.637254-5.525732-2.251224-116.552014-38.475467-216.731488-146.738883-274.956331-296.95693-0.409313-1.22794-0.920955-2.353553-1.739582-4.093135-0.409313-1.22794-0.818627-2.353553-1.22794-3.581493-0.61397-1.944239-1.330269-3.888478-1.944239-5.525732-25.684421-71.118217-41.647647-190.637754-47.275707-271.272509-0.204657-2.251224-0.511642-4.502448-1.023284-6.651344l-0.511642-9.311882c-0.102328-1.534926-0.204657-2.967523-0.204657-4.40012 24.558809-3.78615 48.298991-9.311882 69.890277-16.167882 10.130509-3.069851 20.363346-6.446687 31.41481-10.335165 25.172779-7.572299 56.382932-21.181973 90.355951-39.498751 0.61397-0.306985 1.125612-0.61397 1.637254-0.920955 8.18627-4.40012 16.679524-9.209553 24.763466-13.916658 10.744479-6.139702 22.0006-12.995703 34.484661-21.079644 0.306985-0.204657 0.920955-0.61397 1.330269-0.818627 8.18627-5.321075 16.372539-10.744479 24.047167-16.167882 4.502448-3.069851 9.107225-6.446687 13.609673-9.721195l2.455881-1.739582 3.990806-2.865194c2.558209-1.841911 5.116419-3.683821 7.572299-5.525732 17.907465-13.405016 35.200959-27.424003 51.982812-42.05696 16.679524 14.632957 33.973019 28.651944 51.778155 41.954632 2.558209 1.944239 5.116419 3.78615 7.674628 5.62806l4.297792 3.069851 1.534926 1.125612c4.809433 3.479165 9.516538 6.958329 13.916658 9.925852 8.083941 5.730389 16.270211 11.153792 23.740182 15.963226l2.046567 1.330269c12.381733 7.981613 23.637854 14.837614 34.075347 20.772659 8.595583 5.01409 16.986509 9.721195 24.968122 14.121315 0.409313 0.204657 0.920955 0.511642 1.534926 0.818627 34.177676 18.419107 65.490157 32.131108 90.765264 39.703408 11.051464 3.888478 21.284301 7.265314 30.596183 10.130509 22.102928 7.060658 46.047767 12.58639 70.708904 16.474868C866.772459 326.427501 866.670131 327.860098 866.567803 329.292695L866.567803 329.292695zM707.344859 431.211752 473.217548 671.17178l-119.826521-122.794044c-8.288598-8.493255-21.795943-8.493255-30.084541 0-8.288598 8.493255-8.288598 22.307585 0 30.800839l134.868792 138.245628c4.195463 4.297792 9.618867 6.344359 15.04227 6.344359 5.423404 0 10.846807-2.148896 15.04227-6.344359l249.169581-255.309284c8.288598-8.493255 8.288598-22.307585 0-30.800839C729.038473 422.718497 715.633457 422.718497 707.344859 431.211752L707.344859 431.211752z" p-id="3869" fill="#999999"></path></svg>