<?xml version="1.0" standalone="no"?><!DOCTYPE svg PUBLIC "-//W3C//DTD SVG 1.1//EN" "http://www.w3.org/Graphics/SVG/1.1/DTD/svg11.dtd"><svg t="1507705965053" class="icon" style="" viewBox="0 0 1024 1024" version="1.1" xmlns="http://www.w3.org/2000/svg" p-id="5513" xmlns:xlink="http://www.w3.org/1999/xlink" width="32" height="32"><defs><style type="text/css"></style></defs><path d="M949.535543 926.626275L816.882314 792.080953c38.427194-38.907125 68.682265-84.046185 89.910752-134.236284 22.349007-52.837392 33.680077-108.953458 33.680077-166.787654s-11.33107-113.949238-33.680077-166.787654c-21.581528-51.025117-52.473095-96.845699-91.817172-136.188752-39.343053-39.344077-85.164658-70.235644-136.188752-91.817172-52.838416-22.347984-108.953458-33.680077-166.787654-33.680077-57.834196 0-113.949238 11.332093-166.787654 33.680077-51.025117 21.581528-96.845699 52.473095-136.188752 91.817172-39.344077 39.343053-70.235644 85.163635-91.817172 136.188752C94.857926 377.106754 83.525833 433.222819 83.525833 491.057015s11.33107 113.950262 33.680077 166.787654c21.581528 51.024094 52.473095 96.845699 91.817172 136.188752 39.343053 39.344077 85.163635 70.235644 136.188752 91.817172 52.837392 22.349007 108.953458 33.680077 166.787654 33.680077 57.83522 0 113.949238-11.33107 166.787654-33.680077 39.274492-16.61133 75.450413-38.760792 107.978247-66.013483l133.6223 135.527697a20.399609 20.399609 0 0 0 14.57495 6.096858 20.404726 20.404726 0 0 0 14.368243-5.892197c8.048303-7.93574 8.140401-20.893866 0.204661-28.943193z m-437.536055-48.028876c-213.690894 0-387.540384-173.850513-387.540383-387.540384S298.308595 103.515608 511.999488 103.515608 899.540895 277.366122 899.540895 491.055992 725.690382 878.597399 511.999488 878.597399z" fill="#6a6a6a" p-id="5514"></path></svg>