<?xml version="1.0" standalone="no"?><!DOCTYPE svg PUBLIC "-//W3C//DTD SVG 1.1//EN" "http://www.w3.org/Graphics/SVG/1.1/DTD/svg11.dtd"><svg t="1508153532648" class="icon" style="" viewBox="0 0 1024 1024" version="1.1" xmlns="http://www.w3.org/2000/svg" p-id="19411" xmlns:xlink="http://www.w3.org/1999/xlink" width="32" height="32"><defs><style type="text/css"></style></defs><path d="M643.596997 1024c38.4 0 73.609846-8.979692 104.704-26.761846 33.220923-18.963692 59.136-48.187077 81.073231-81.841231 2.914462-5.257846 3.229538-5.848615 6.163692-11.224615 33.122462-60.632615-4.076308-156.553846-94.700308-227.879385-49.388308-38.872615-103.975385-61.164308-149.819077-61.164308-34.067692 0-61.636923 12.484923-78.316307 35.328-3.584 2.323692-9.550769 5.376-14.434462 5.376-1.398154 0-4.332308 0-8.704-4.942769a20.834462 20.834462 0 0 1-0.846769-0.905846 897.339077 897.339077 0 0 1-70.144-105.905231 903.837538 903.837538 0 0 1-50.865231-105.156923c-1.988923-11.264-0.492308-16.876308 0.787692-18.471384 0.925538-1.122462 3.682462-1.870769 3.702154-1.87077 24.969846-0.590769 47.281231-11.815385 65.024-32.452923 33.417846-38.872615 47.635692-107.224615 38.006154-182.823384C460.438843 87.394462 396.852382 0 327.299151 0l-1.988923 0.019692c-3.308308 0.078769-6.518154 0.393846-9.688616 0.886154C272.948382-0.984615 233.662228 7.896615 199.496074 27.392c-158.011077 90.269538-161.339077 373.956923-7.581539 645.848615C310.600074 883.042462 492.123766 1024 643.596997 1024z m-52.578462-351.291077c32.669538 0 75.342769 18.254769 114.176 48.836923 67.741538 53.307077 97.634462 123.372308 82.333539 152.024616-2.343385 4.391385-3.977846 7.148308-5.257846 9.373538-15.202462 26.328615-37.986462 50.254769-62.54277 64.295385-22.272 12.740923-47.891692 19.160615-76.130461 19.160615-129.339077 0-294.439385-132.214154-401.506462-321.516308-133.316923-235.776-139.736615-495.655385-13.981538-567.47323 25.225846-14.395077 55.000615-20.755692 87.532308-18.806154 2.382769 0.118154 4.785231-0.019692 7.108923-0.472616 1.319385-0.256 2.638769-0.492308 3.997538-0.531692 34.205538 0 80.147692 65.417846 91.313231 153.009231 7.384615 57.895385-2.244923 112.049231-24.516923 137.964307-10.436923 12.150154-19.298462 12.347077-22.212923 12.406154-2.500923 0-29.479385 0.846769-47.616 23.236923-13.824 17.073231-17.860923 40.211692-11.972923 68.726154 0.354462 1.654154 0.846769 3.308308 1.476923 4.923077a965.435077 965.435077 0 0 0 132.017231 230.045539c1.260308 1.614769 2.638769 3.052308 4.135384 4.332307 13.646769 13.883077 30.464 21.188923 48.896 21.188923 29.243077 0 51.948308-18.904615 54.429539-21.070769 2.166154-1.890462 4.036923-4.076308 5.55323-6.498461 6.793846-10.889846 21.563077-13.154462 32.768-13.154462z m90.88-193.969231c13.764923 0 25.993846-9.826462 28.553847-23.827692a100.391385 100.391385 0 0 0-16.226462-75.618462 100.430769 100.430769 0 0 0-64.945231-41.984 29.065846 29.065846 0 1 0-10.476307 57.186462c11.264 2.067692 21.070769 8.408615 27.56923 17.841231 6.498462 9.393231 8.96 20.814769 6.892308 32.098461a29.046154 29.046154 0 0 0 28.632615 34.304z m98.225231-2.087384c13.745231 0 25.974154-9.806769 28.553846-23.827693 17.644308-96.275692-46.316308-188.947692-142.611692-206.572307a29.046154 29.046154 0 1 0-10.496 57.147077 119.492923 119.492923 0 0 1 95.901538 138.92923 29.046154 29.046154 0 0 0 28.652308 34.323693z m112.502154 31.724307c13.784615 0 25.993846-9.806769 28.553846-23.827692a302.670769 302.670769 0 0 0-48.955077-228.076308 302.828308 302.828308 0 0 0-195.938461-126.680615 29.065846 29.065846 0 1 0-10.476308 57.166769 245.149538 245.149538 0 0 1 158.582154 102.518154 245.129846 245.129846 0 0 1 39.620923 184.615385 29.065846 29.065846 0 0 0 28.612923 34.284307z" p-id="19412" fill="#327bb8"></path></svg>