<?xml version="1.0" standalone="no"?><!DOCTYPE svg PUBLIC "-//W3C//DTD SVG 1.1//EN" "http://www.w3.org/Graphics/SVG/1.1/DTD/svg11.dtd"><svg t="1508153585701" class="icon" style="" viewBox="0 0 1024 1024" version="1.1" xmlns="http://www.w3.org/2000/svg" p-id="20712" xmlns:xlink="http://www.w3.org/1999/xlink" width="32" height="32"><defs><style type="text/css"></style></defs><path d="M1024 492.8C1024 256 793.6 60.8 512 60.8S0 256 0 492.8s230.4 432 512 432c54.4 0 105.6-6.4 156.8-19.2l195.2 83.2-25.6-163.2C950.4 748.8 1024 627.2 1024 492.8zM512 860.8c-246.4 0-448-163.2-448-368S265.6 124.8 512 124.8s448 163.2 448 368S758.4 860.8 512 860.8z" p-id="20713" fill="#51c332"></path><path d="M320 412.8m-64 0a2 2 0 1 0 128 0 2 2 0 1 0-128 0Z" p-id="20714" fill="#51c332"></path><path d="M704 412.8m-64 0a2 2 0 1 0 128 0 2 2 0 1 0-128 0Z" p-id="20715" fill="#51c332"></path></svg>